<svg width="512" height="512" viewBox="0 0 512 512" fill="none" xmlns="http://www.w3.org/2000/svg">
<g clip-path="url(#clip0_33_468)">
<rect width="512" height="512" fill="#585858"/>
<rect width="512" height="512" fill="url(#paint0_radial_33_468)"/>
<path d="M240.965 66.0151C255.533 64.4173 290.787 67.2271 301.016 75.5869C320.838 91.7876 269.405 97.5564 262.432 97.9304C248.025 99.6175 212.476 96.8733 202.342 88.4159C182.594 71.9347 234.801 66.475 240.965 66.0151Z" fill="white"/>
<path d="M207.955 27.0977C261.025 22.0726 328.07 24.8047 376.583 49.4424C382.513 52.4535 387.932 56.5379 393.014 60.6406C407.963 77.0643 404.749 84.1074 404.646 105.247L404.55 144.949L404.496 224.941C404.495 238.553 404.548 252.336 404.468 265.897C404.428 272.7 401.567 279.749 396.292 284.066C371.707 304.187 319.424 312.699 289.253 315.089C267.804 316.697 246.273 316.92 224.795 315.76C195.512 314.303 107.946 304.493 98.1025 271.124C110.686 267.37 119.147 269.063 129.924 267.024L130.177 266.324C129.147 264.238 126.271 262.898 124.252 261.828C112.218 255.449 98.5434 256.414 86.5527 262.361C79.9335 265.58 74.2481 270.441 70.041 276.479C75.5668 292.86 70.1287 310.16 52.8008 315.956C45.0629 318.572 36.5987 317.975 29.3047 314.296C22.2566 310.794 16.953 304.552 14.6367 297.029C10.4886 284.003 14.8306 270.095 20.9033 258.452C33.3035 234.727 54.5837 216.866 80.1006 208.768C94.3502 204.303 112.291 203.216 126.858 206.951C129.171 207.544 135.019 209.636 136.313 208.287C136.435 205.209 131.765 202.163 129.469 200.511C119.817 193.565 109.021 192.004 97.4453 192.284L97.4717 120.984C97.4717 108.443 97.0157 91.7884 97.9287 79.5938C98.2548 79.1009 99.3387 75.2006 99.6514 74.2227C100.585 71.3027 102.963 67.5599 104.935 65.2344C125.563 40.906 177.338 29.9961 207.955 27.0977ZM325.604 242.332C322.339 243.964 318.925 247.551 315.885 249.809C307.412 256.1 294.872 257.962 284.864 254.929C281.756 253.974 278.828 252.51 276.199 250.598C272.245 247.704 266.825 240.87 261.912 243.792C255.8 247.428 261.413 254.839 264.609 257.675C306.335 288.883 350.371 241.835 325.604 242.332ZM264.224 178.534C259.782 172.847 252.627 169.985 245.488 171.038C234.613 172.644 227.056 182.704 228.544 193.597C230.033 204.489 240.014 212.152 250.922 210.779C258.081 209.878 264.205 205.2 266.957 198.529C269.709 191.858 268.665 184.222 264.224 178.534ZM354.077 177.171C349.53 171.681 342.383 169.059 335.364 170.303C324.671 172.198 317.498 182.348 319.278 193.06C321.059 203.772 331.132 211.053 341.861 209.388C348.905 208.294 354.819 203.501 357.347 196.835C359.874 190.169 358.625 182.66 354.077 177.171ZM250.903 41.6152C216.732 42.1181 181.935 45.1246 149.769 57.4463C139.293 61.4581 120.722 69.5271 120.491 82.9189C120.413 87.5133 123.573 92.3838 126.987 95.3486C156.445 118.975 216.72 123.68 251.783 123.559C286.866 123.539 323.312 120.137 356.387 106.584C387.686 93.7584 391.85 74.2467 358.099 59.8301C324.688 45.5601 287.143 41.8797 250.903 41.6152Z" fill="white"/>
<path d="M97.4807 310.572C112.1 344.931 196.895 353.677 229.266 355.176C269.507 357.039 384.158 353.473 404.491 311.5C407.34 348.709 393.736 373.801 360.683 391.721C353.619 385.769 345.71 381.461 336.614 379.657C332.949 378.929 326.126 378.379 322.649 379.51L322.408 380.145C323.783 381.871 332.355 386.467 335.226 388.384C343.703 394.043 353.4 401.58 359.68 409.622L360.019 410.065L360.63 410.755C363.472 415.09 370.789 424.86 373.842 428.787C384.99 419.267 397.946 411.193 412.891 410.068C421.743 409.402 430.993 415.17 430.758 424.54C430.458 436.518 418.29 449.882 409.889 457.784C397.099 469.812 380.983 486.958 362.319 487.459C349.104 487.276 342.72 477.502 336.651 467.625C334.205 463.646 330.079 457.98 327.137 454.449C319.451 445.326 310.461 437.388 300.456 430.891C272.065 412.799 257.633 416.962 227.248 414.37C190.594 411.242 144.225 401.159 117.889 373.76C98.8368 353.939 97.0738 336.184 97.4807 310.572Z" fill="white"/>
<path d="M95.3716 397.83C107.793 397.125 117.722 406.161 131.059 400.084C149.026 411.136 170.982 417.965 191.523 422.399C178.635 443.304 155.385 451.853 131.941 453.172C123.695 453.171 114.015 451.161 106.092 448.897C100.061 457.218 87.4347 472.259 77.0163 473.814C39.3549 479.433 71.7411 421.789 79.0345 408.453C82.3413 402.407 88.6796 399.098 95.3716 397.83Z" fill="white"/>
<path d="M464.043 192.676C494.325 190.247 506.292 220.801 493.63 245.17C482.286 267.001 467.377 278.761 444.541 287.088C434.532 290.247 426.062 291.838 415.611 292.126C418.59 276.336 417.56 254.081 416.439 238.099C425.714 237.343 433.214 236.943 439.957 229.695C437.964 211.388 444.858 196.602 464.043 192.676Z" fill="white"/>
</g>
<defs>
<radialGradient id="paint0_radial_33_468" cx="0" cy="0" r="1" gradientUnits="userSpaceOnUse" gradientTransform="translate(256 2.07432e-05) rotate(90) scale(715 452.457)">
<stop stop-color="#2EBA6D"/>
<stop offset="0.875658" stop-color="#03302B"/>
<stop offset="1" stop-color="#042E29"/>
</radialGradient>
<clipPath id="clip0_33_468">
<rect width="512" height="512" fill="white"/>
</clipPath>
</defs>
</svg>
