<svg xmlns="http://www.w3.org/2000/svg" version="1.1" xmlns:xlink="http://www.w3.org/1999/xlink" width="1000" height="1000"><g clip-path="url(#SvgjsClipPath1053)"><rect width="1000" height="1000" fill="#8d480a"></rect><g transform="matrix(1,0,0,1,0,0)"><svg xmlns="http://www.w3.org/2000/svg" version="1.1" xmlns:xlink="http://www.w3.org/1999/xlink" width="1000" height="1000"><svg width="1000" height="1000" viewBox="0 0 1000 1000" fill="none" xmlns="http://www.w3.org/2000/svg">
<g clip-path="url(#clip0_1_3)">
<path d="M0 0H1000V1000H0V0Z" fill="#8D480A"></path>
<path d="M494.595 129.034C496.083 128.978 497.573 128.942 499.063 128.924C557.278 127.98 665.377 137.596 708.589 179.822C716.088 187.151 722.321 196.578 724.596 206.925C726.431 215.274 725.905 224.252 725.971 232.756C726.068 245.292 726.097 257.828 726.06 270.365L726.287 412.975C729.796 418.201 734.596 421.914 740.434 424.255C749.286 427.806 757.336 426.435 765.832 422.725C765.543 420.975 765.255 419.22 765.067 417.455C764.091 408.332 765.077 397.868 771.178 390.559C775.527 385.349 780.674 384.522 785.976 381.115C788.47 379.513 790.691 376.715 792.815 374.63C799.295 368.273 807.294 364.906 816.339 364.205C829.114 363.294 841.729 367.49 851.414 375.871C862.7 385.749 868.531 399.595 869.372 414.435C870.747 438.686 860.072 463.774 844.012 481.585C823.003 504.889 793.758 523.061 761.842 525.286C756.087 525.687 750.265 525.998 744.498 525.827C738.849 525.66 733.359 525.002 727.689 525.3C726.713 526.035 726.572 527.484 726.441 528.663C725.912 533.437 726.301 538.502 726.361 543.303C726.492 553.94 726.655 564.857 725.065 575.393C718.885 616.316 698.418 645.677 665.672 669.99C671.964 676.224 677.06 683.58 683.015 690.122C695.985 681.624 711.37 674.682 726.694 672.193C734.744 670.886 743.593 670.821 750.43 675.907C756.245 680.232 759.637 687.293 760.691 694.374C762.48 706.392 755.55 717.489 748.667 726.698C732.546 748.265 685.152 793.401 658.089 797.031C651.262 797.947 645.569 796.199 639.749 792.784C623.679 783.359 608.539 765.19 595.69 751.801C582.456 738.011 568.729 724.424 553.533 712.788C549.466 708.989 539.286 701.891 533.97 700.906C529.573 700.09 523.341 701.379 518.742 701.601C513.286 701.843 507.824 701.932 502.362 701.867C475.237 701.591 447.301 699.874 420.612 694.948C411.729 710.606 396.619 724.041 381.085 732.869C356.784 746.721 327.932 750.216 301.026 742.567C291.324 754.733 279.833 768.15 264.946 773.919C257.117 776.951 247.481 776.979 239.821 773.367C234.022 770.582 229.586 765.583 227.511 759.493C225.47 753.616 225.429 746.777 226.583 740.713C229.612 724.795 238.669 708.042 245.466 693.381C249.524 684.628 253.335 675.701 257.681 667.088C260.04 662.414 262.828 657.338 267.399 654.486C276.301 648.935 289.672 655.277 299.159 656.394C305.792 657.176 311.663 656.688 318.01 654.609C293.662 633.246 276.516 605.981 273.312 573.176C271.892 558.633 272.728 543.267 272.761 528.629C272.783 519.224 273.856 505.371 272.328 496.409C272.296 496.219 272.257 496.03 272.221 495.842L264.212 502.781C264.361 503.252 264.507 503.725 264.65 504.198C267.728 514.313 266.748 525.816 261.656 535.158C258.203 541.492 252.24 545.622 245.582 548.167C243.551 548.943 241.111 549.455 239.236 550.539C237.886 551.318 236.675 552.641 235.534 553.699C232.33 556.666 229.185 558.016 225.037 559.186C214.524 562.151 203.036 559.89 193.695 554.524C180.466 546.924 171.503 535.072 167.635 520.374C161.136 495.67 169.569 469.393 182.046 448.022C201.864 414.08 234.658 391.094 272.41 381.193L272.321 262.768L272.163 230.773C272.161 222.747 271.796 214.349 273.326 206.439C275.108 197.224 279.71 188.867 286.154 182.078C328.522 137.439 435.94 130.333 494.595 129.034Z" fill="#4D2800"></path>
<path d="M294.34 250.748C306.321 260.922 318.696 268.074 333.069 274.24C337.655 276.034 342.227 277.734 346.916 279.249C355.931 282.371 365.442 285.502 374.838 287.2C379.256 288.31 384.035 288.971 388.366 290.286C463.291 306.142 561.717 305.442 635.28 284.789C654.377 279.427 674.036 272.318 690.762 261.495C695.275 258.577 699.593 255.37 703.691 251.893L704.276 408.329L704.334 451.928C704.364 459.334 705.084 467.466 704.105 474.79C703.409 479.992 701.683 483.17 698.016 486.893C690.105 494.926 679.046 500.018 668.698 504.096C623.906 521.746 566.596 525.991 518.632 526.035C500.337 526.052 482.112 525.852 463.849 524.604C459.192 524.322 453.931 524.348 449.37 523.392C429.807 522.094 410.064 518.97 390.755 515.592L377.149 512.535C359.538 508.827 317.675 497.414 304.957 485.156C314.776 481.14 326.306 480.752 335.656 475.927C337.667 474.889 340.09 473.333 340.628 470.957C340.93 469.623 340.566 468.217 339.769 467.128C337.456 463.97 332.197 462.886 328.537 462.195C304.544 457.657 278.237 464.697 258.422 478.48C253.586 481.843 248.703 485.846 245.719 491.021C239.492 501.824 247.846 508.406 245.62 519.314C245.125 521.744 243.937 523.673 241.793 524.965C237.344 527.648 235.519 523.006 231.53 522.45C225.661 521.631 226.685 533.688 222.671 536.669C219.845 538.768 215.139 538.63 211.827 538.11C204.406 536.944 198.541 532.202 194.244 526.289C186.917 516.206 185.619 504.779 187.663 492.692C192.377 464.83 213.049 439.378 235.677 423.417C259.172 406.846 286.089 398.318 314.868 401.068C321.49 401.7 328.008 403.274 334.565 404.365C337.176 404.8 341.393 405.732 343.554 403.85C344.601 402.939 345.1 401.9 345.117 400.505C345.163 396.705 342.158 392.686 339.602 390.152C328.21 378.853 309.606 378.158 294.621 378.335C294.898 335.815 293.752 293.265 294.34 250.748Z" fill="#9E5409"></path>
<path d="M333.069 274.24C337.655 276.034 342.227 277.734 346.916 279.249C346.729 311.469 350.924 350.5 339.41 380.98C336.71 373.56 335.373 365.481 334.518 357.643C333.262 346.123 333.302 334.261 333.176 322.686C333.066 312.588 332.732 302.531 332.777 292.425C332.804 286.544 332.12 280.017 333.069 274.24Z" fill="#8D480A"></path>
<path d="M374.838 287.2C379.256 288.31 384.035 288.971 388.366 290.286C388.214 290.413 388.015 290.5 387.911 290.668C387.807 290.833 387.237 349.32 386.975 354.492C386.478 364.255 385.956 376.421 383.061 385.704C382.24 388.336 381.044 390.365 379.448 392.571C377.721 389.536 377.094 386.443 376.612 383.025C374.799 370.148 375.191 356.938 374.929 343.962C374.548 325.122 373.912 306.029 374.838 287.2Z" fill="#8D480A"></path>
<path d="M377.149 512.535L377.927 511.944C379.393 499.25 375.531 443.099 384.423 436.548C385.392 435.833 385.897 435.962 386.959 436.184C390.36 439.497 390.675 453.781 390.736 458.43C390.868 477.484 390.874 496.539 390.755 515.592L377.149 512.535Z" fill="#8D480A"></path>
<path d="M449.37 523.392C450.235 522.656 450.237 522.488 450.347 521.304C451.426 509.648 447.998 463.439 456.506 456.646C457.092 456.178 457.287 456.279 457.978 456.241C462.179 460.067 462.596 477.268 462.876 483.246C463.579 497.021 463.904 510.812 463.849 524.604C459.192 524.322 453.932 524.348 449.37 523.392Z" fill="#8D480A"></path>
<path d="M641.574 424.624C643.916 424.747 646.226 425.155 648.023 426.777C649.857 428.434 650.399 430.834 650.384 433.217C650.323 442.169 644.815 450.603 638.52 456.571C625.379 469.03 604.458 475.164 586.625 474.652C566.299 474.069 548.911 466.24 535.04 451.531C532.292 447.95 529.65 444.262 528.673 439.755C528.108 437.149 528.146 434.225 529.783 431.996C531.258 429.987 534.186 428.494 536.65 428.266C544.986 427.498 550.176 437.057 555.835 441.688C567.287 451.062 581.574 454.356 596.133 452.731C607.126 451.506 618.198 447.108 625.903 438.967C628.506 436.218 630.561 433.011 632.922 430.062C635.584 426.735 637.216 425.107 641.574 424.624Z" fill="#4D2800"></path>
<path d="M519.401 341.855C524.229 341.633 528.449 341.922 532.697 344.537C538.578 348.156 541.675 354.899 543.079 361.431C545.434 372.383 544.989 387.892 538.58 397.524C535.576 402.039 531.417 404.797 526.102 405.816C521.52 406.242 516.323 406.174 512.305 403.667C505.837 399.632 502.373 390.432 500.904 383.273C498.82 373.115 498.984 359.356 505.048 350.475C508.643 345.211 513.378 343.074 519.401 341.855Z" fill="#4D2800"></path>
<path d="M642.619 329.485C646.834 329.26 650.141 329.739 653.753 332.124C660.602 336.648 663.352 344.795 664.909 352.454C667.097 363.222 666.437 377.655 660.046 387.006C656.929 391.564 652.828 393.987 647.476 395.047C643.037 395.381 638.888 395.023 634.99 392.687C629.701 389.517 626.944 383.745 625.403 377.995C622.251 366.225 623.111 350.404 629.362 339.722C632.481 334.395 636.656 331.011 642.619 329.485Z" fill="#4D2800"></path>
<path d="M489.145 152.306L489.6 152.285C544.888 149.95 607.306 155.594 658.831 176.604C669.94 181.133 681.386 186.164 690.278 194.407C695.595 199.337 700.229 205.828 700.37 213.355C700.502 220.398 696.744 226.79 692.023 231.747C667.781 257.204 605.151 269.439 571.254 273.417C550.453 275.721 529.549 276.973 508.621 277.166C484.923 277.485 461.226 276.505 437.635 274.231C400.699 270.476 338.66 259.517 309.943 234.399C303.661 228.905 297.642 221.6 297.275 212.88C297.012 206.635 299.987 201.128 304.165 196.707C310.546 189.954 319.141 185.25 327.39 181.166C374.05 158.061 437.595 153.776 489.145 152.306Z" fill="#E39738"></path>
<path d="M483.051 168.294C483.228 168.284 483.405 168.271 483.582 168.264C526.034 166.723 573.891 170.891 614.152 184.71C625.077 188.459 636.72 193.099 645.295 201.069C649.145 204.647 652.91 209.227 652.935 214.75C652.955 219.281 650.181 223.632 647.137 226.791C623.588 251.224 548.233 260.122 514.487 260.91C473.52 261.938 386.016 257.052 353.77 230.48C349.251 226.755 344.976 221.455 344.569 215.408C344.225 210.307 346.449 205.72 349.807 202.011C367.36 182.628 417.113 174.052 442.619 171.107C456.061 169.555 469.538 168.855 483.051 168.294Z" fill="#C9741B"></path>
<path d="M479.416 178.867C512.499 176.528 594.274 182.102 619.442 204.011C622.442 206.624 625.093 210.036 625.267 214.17C625.423 217.877 623.645 220.894 621.106 223.462C603.529 241.246 541.205 248.957 516.92 249.51C483.54 251.935 404.98 246.976 378.489 224.927C375.297 222.269 372.063 218.558 371.814 214.217C371.634 211.079 373.299 208.224 375.358 205.986C393.833 185.895 453.098 180.104 479.416 178.867Z" fill="#E39738"></path>
<path d="M488.881 192.061C508.885 189.978 560.572 195.323 576.565 206.39C578.76 207.909 582.388 211.243 582.672 214.089C582.88 216.176 582.021 217.798 580.633 219.286C567.702 233.153 525.67 235.7 507.217 236.398C484.439 237.714 435.151 235.231 417.049 221.472C414.837 219.79 412.621 217.425 412.398 214.51C412.24 212.423 413.165 210.593 414.555 209.095C426.861 195.819 470.474 192.988 488.881 192.061Z" fill="#C9741B"></path>
<path d="M482.757 200.811C500.009 199.529 539.321 200.852 553.671 209.822C555.227 210.794 556.855 212.122 557.198 214.019C557.389 215.074 556.856 216.019 556.191 216.8C549.419 224.742 521.227 225.843 511.153 226.406C496.327 227.342 454.176 225.446 442.021 218.002C441.804 217.869 441.59 217.729 441.372 217.596C439.913 216.697 438.808 216.112 437.906 214.619C437.862 213.292 438.007 212.711 438.846 211.648C445.041 203.798 472.426 201.557 482.757 200.811Z" fill="#E39738"></path>
<path d="M296.269 578.882C317.574 595.583 353.144 605.106 379.134 611.271C383.469 612.028 388.765 612.492 392.9 613.881C407.155 616.438 421.513 618.379 435.935 619.702C440.768 620.177 445.777 620.937 450.624 621.043C454.337 621.357 461.275 621.164 464.69 622.214C475.555 622.805 486.431 623.171 497.31 623.312C552.542 623.641 626.149 620.116 676.608 597.544C685.04 593.773 694.156 589.344 700.761 582.813C695.48 605.598 683.266 626.186 665.8 641.742C660.52 646.457 654.416 650.261 649.324 655.178L648.847 655.645C640.75 648.61 629.517 640.858 619.491 636.942C615.919 635.547 611.346 634.544 607.723 636.343C606.542 636.929 605.937 637.558 605.574 638.809C605.857 639.978 606.215 640.768 607.038 641.665C611.32 646.338 619.929 652.267 625.188 657.334C640.518 672.104 653.433 688.12 666.763 704.657C666.058 705.699 665.362 706.747 664.677 707.802C661.049 713.397 658.974 720.199 660.638 726.869C660.953 728.132 661.609 729.534 662.864 730.098C664.14 730.671 665.668 730.313 666.787 729.58C670.644 727.055 674.263 723.673 677.869 720.782C686.993 713.466 696.162 706.584 706.678 701.335C713.121 698.12 730.068 691.132 737.269 694.121C738.365 694.577 738.905 695.204 739.293 696.33C740.285 699.216 738.061 704.073 736.639 706.572C727.038 723.457 676.443 771.012 658.119 775.478C653.043 776.714 648.515 773.148 644.684 770.19C635.482 763.086 627.541 753.972 619.457 745.638C598.679 724.215 572.116 696.398 545.389 683.192C543.16 682.091 540.924 680.991 538.446 680.581C533.207 679.713 527.527 680.35 522.224 680.447C512.624 680.622 503.006 680.844 493.409 680.47C446.306 678.632 383.912 669.745 343.024 644.517C316.365 628.069 303.432 608.964 296.269 578.882Z" fill="#9E5409"></path>
<path d="M450.625 621.043C454.337 621.357 461.275 621.164 464.69 622.214C464.409 622.413 463.925 622.959 463.83 623.287C463.228 625.383 463.782 631.502 463.713 634.002C463.536 640.393 461.672 671.753 459.147 675.473C458.233 675.387 458.026 675.332 457.334 674.758C450.146 668.791 451.953 631.833 450.683 621.484C450.665 621.336 450.644 621.189 450.625 621.043Z" fill="#8D480A"></path>
<path d="M379.134 611.271C383.469 612.028 388.765 612.492 392.901 613.881C392.536 614.019 392.022 613.969 391.806 614.294C391.062 615.419 391.843 620.939 391.842 622.441C391.837 630.291 389.194 656.494 385.275 662.221L384.597 662.034C379.931 653.212 377.518 621.489 379.134 611.271Z" fill="#8D480A"></path>
<path d="M294.931 505.741C317.148 518.6 341.357 526.471 366.203 532.561C428.731 547.307 493.143 552.425 557.215 547.737C607.458 544.552 659.97 537.071 703.707 510.511C703.47 521.287 705.355 542.801 702.45 552.028C701.733 554.305 700.326 556.105 698.916 557.989C694.807 562.505 690.136 566.177 684.905 569.322C615.832 610.846 446.552 604.774 369.437 585.201C349.115 580.043 305.776 566.71 294.808 548.285C294.185 534.237 294.426 519.793 294.931 505.741Z" fill="#FDD99A"></path>
<path d="M816.314 385.826C817.872 385.776 819.406 385.787 820.957 385.964C828.437 386.819 835.512 390.424 840.204 396.374C846.522 404.382 848.024 415.4 846.876 425.284C844.231 448.057 828.524 468.555 810.981 482.334C789.152 499.478 762.472 506.711 734.96 503.384C732.824 503.065 728.36 502.419 727.077 500.455C725.724 498.381 726.334 448.555 726.642 442.223C730.756 444.123 734.843 445.785 739.254 446.865C759.455 451.808 769.599 445.545 786.159 435.5C791.555 438.082 797.228 438.673 803.054 437.365C809.81 435.849 815.38 431.267 818.908 425.414C823.234 418.236 824.51 406.743 818.755 399.975C816.362 397.162 807.798 392.111 807.195 389.647C807.397 389.134 807.39 389.056 807.79 388.571C809.518 386.476 813.763 386.067 816.314 385.826Z" fill="#9E5409"></path>
<path d="M338.566 667.503C357.103 677.842 377.313 684.497 397.696 690.131C390.741 702.172 377.441 711.861 364.99 717.562C348.816 724.966 328.632 727.072 311.252 723.209C304.951 721.809 298.983 719.475 292.957 717.214C289.504 720.607 286.869 725.263 284 729.181C278.055 737.864 268.307 749.141 258.472 753.532C255.985 754.642 252.858 755.676 250.193 754.55C248.878 753.994 247.949 753.025 247.521 751.664C244.084 740.744 271.744 687.266 277.794 674.827C282.02 675.894 286.265 676.88 290.528 677.787C310.984 682.093 321.584 678.604 338.566 667.503Z" fill="#9E5409"></path>
<path d="M789.953 403.055C791.573 403.006 793.273 402.896 794.882 403.097C798.566 403.556 802.441 405.834 804.538 408.904C806.04 411.104 806.838 413.998 806.236 416.636C805.474 419.971 803.491 421.726 800.705 423.474C799.296 423.683 797.914 423.886 796.492 423.661C792.766 423.072 789.112 420.612 787.021 417.496C785.505 415.237 784.554 412.171 785.188 409.459C785.83 406.717 787.551 404.452 789.953 403.055Z" fill="#9E5409"></path>
</g>
<defs>
<clipPath id="clip0_1_3">
<rect width="1000" height="1000" fill="white"></rect>
</clipPath>
<clipPath id="SvgjsClipPath1053"><rect width="1000" height="1000" x="0" y="0" rx="350" ry="350"></rect></clipPath></defs>
</svg></svg></g></g></svg>